<svg xmlns="http://www.w3.org/2000/svg" xmlns:xlink="http://www.w3.org/1999/xlink" width="1080" zoomAndPan="magnify" viewBox="0 0 810 1439.999935" height="1920" preserveAspectRatio="xMidYMid meet" version="1.0"><defs><clipPath id="717b41cd29"><path d="M 0 0 L 809.570312 0 L 809.570312 1440 L 0 1440 Z M 0 0 " clip-rule="nonzero"/></clipPath><clipPath id="f38023c2af"><path d="M 637 225 L 809.570312 225 L 809.570312 631 L 637 631 Z M 637 225 " clip-rule="nonzero"/></clipPath><clipPath id="4a07ac4a32"><path d="M 716 298 L 809.570312 298 L 809.570312 581 L 716 581 Z M 716 298 " clip-rule="nonzero"/></clipPath><clipPath id="1b8ad20bb4"><path d="M 611 0 L 809.570312 0 L 809.570312 228 L 611 228 Z M 611 0 " clip-rule="nonzero"/></clipPath><clipPath id="2d86af403c"><path d="M 677 0 L 809.570312 0 L 809.570312 161 L 677 161 Z M 677 0 " clip-rule="nonzero"/></clipPath><clipPath id="ec8687cecf"><path d="M 719 0 L 809.570312 0 L 809.570312 115 L 719 115 Z M 719 0 " clip-rule="nonzero"/></clipPath><clipPath id="60e3247725"><path d="M 758 0 L 809.570312 0 L 809.570312 55 L 758 55 Z M 758 0 " clip-rule="nonzero"/></clipPath><clipPath id="44d5b28fea"><path d="M 771 378 L 809.570312 378 L 809.570312 533 L 771 533 Z M 771 378 " clip-rule="nonzero"/></clipPath><clipPath id="89e25999c2"><path d="M 665 1270 L 809.570312 1270 L 809.570312 1373 L 665 1373 Z M 665 1270 " clip-rule="nonzero"/></clipPath><clipPath id="0c6ec5fd6f"><path d="M 711 1293 L 809.570312 1293 L 809.570312 1340 L 711 1340 Z M 711 1293 " clip-rule="nonzero"/></clipPath><clipPath id="bbfa33e18f"><path d="M 32 0 L 809.570312 0 L 809.570312 744 L 32 744 Z M 32 0 " clip-rule="nonzero"/></clipPath><clipPath id="6667ccb0fb"><path d="M 324 700 L 809.570312 700 L 809.570312 955 L 324 955 Z M 324 700 " clip-rule="nonzero"/></clipPath><clipPath id="6872b37942"><path d="M 402 749 L 809.570312 749 L 809.570312 915 L 402 915 Z M 402 749 " clip-rule="nonzero"/></clipPath><clipPath id="bb5e5abfcb"><path d="M 478 772 L 809.570312 772 L 809.570312 866 L 478 866 Z M 478 772 " clip-rule="nonzero"/></clipPath><clipPath id="e9f15ec7b9"><path d="M 0 276 L 809.570312 276 L 809.570312 1440 L 0 1440 Z M 0 276 " clip-rule="nonzero"/></clipPath></defs><g clip-path="url(#717b41cd29)"><path fill="#000000" d="M 396.09375 1439.78125 C 395.734375 1439.78125 395.375 1439.609375 395.15625 1439.28125 C 334.441406 1348.601562 293.699219 1320.089844 258.703125 1302.800781 C 237.804688 1292.464844 216.945312 1283.402344 196.777344 1274.640625 C 140.660156 1250.257812 87.652344 1227.222656 48.835938 1182.914062 C 5.703125 1133.667969 -15.230469 1063.597656 -17.042969 962.402344 C -17.691406 925.929688 -21.234375 854.242188 -37.570312 783.683594 C -48.316406 737.296875 -62.804688 699.660156 -80.636719 671.824219 C -102.515625 637.683594 -129.597656 618.125 -161.140625 613.683594 C -207.664062 607.128906 -239.089844 622.714844 -260.046875 662.734375 C -278.980469 698.898438 -287.441406 751.21875 -296.402344 806.621094 C -302.175781 842.328125 -308.144531 879.238281 -317.277344 914.742188 C -327.648438 955.039062 -340.660156 987.359375 -357.0625 1013.550781 C -396.941406 1077.195312 -459.585938 1108.273438 -548.257812 1108.273438 C -553.117188 1108.273438 -558.042969 1108.183594 -563.058594 1107.996094 C -579.820312 1107.375 -595.441406 1106.730469 -610.542969 1106.109375 C -617.386719 1105.824219 -624.042969 1105.554688 -630.523438 1105.292969 C -631.132812 1105.269531 -631.601562 1104.769531 -631.601562 1104.167969 C -631.601562 1104.15625 -631.601562 1104.140625 -631.601562 1104.125 C -631.582031 1103.503906 -631.050781 1103.015625 -630.433594 1103.046875 C -623.953125 1103.308594 -617.296875 1103.578125 -610.453125 1103.863281 C -595.351562 1104.484375 -579.738281 1105.128906 -562.976562 1105.75 C -467.289062 1109.300781 -400.5625 1078.753906 -358.964844 1012.359375 C -322.53125 954.207031 -309.828125 875.605469 -298.613281 806.269531 C -289.628906 750.679688 -281.136719 698.179688 -262.027344 661.691406 C -251.765625 642.09375 -239.222656 628.480469 -223.6875 620.070312 C -206.46875 610.746094 -185.898438 607.929688 -160.816406 611.457031 C -128.601562 615.996094 -100.980469 635.894531 -78.734375 670.613281 C -60.757812 698.664062 -46.175781 736.542969 -35.371094 783.175781 C -18.980469 853.933594 -15.441406 925.804688 -14.78125 962.347656 C -12.976562 1062.996094 7.777344 1132.605469 50.546875 1181.429688 C 89.023438 1225.359375 141.804688 1248.296875 197.683594 1272.574219 C 217.875 1281.351562 238.757812 1290.429688 259.707031 1300.777344 C 319.386719 1330.277344 360.976562 1384.171875 397.027344 1438.023438 C 397.15625 1438.21875 397.214844 1438.433594 397.214844 1438.652344 C 397.214844 1439.011719 397.042969 1439.363281 396.714844 1439.582031 C 396.519531 1439.707031 396.300781 1439.765625 396.09375 1439.765625 Z M 492.519531 993.90625 C 480.257812 993.90625 468.777344 993.148438 458.234375 991.621094 C 411.351562 984.816406 372.816406 973.394531 343.691406 957.683594 C 316.984375 943.273438 297.285156 924.753906 285.148438 902.632812 C 274.792969 883.769531 269.632812 862.046875 269.632812 837.003906 C 269.632812 818.804688 272.367188 798.855469 277.808594 776.980469 C 289.070312 731.765625 310.523438 684.0625 329.449219 641.976562 C 342.722656 612.460938 355.257812 584.582031 363.117188 560.492188 C 386.824219 487.804688 398.585938 431.289062 398.585938 387.5625 C 398.585938 353.617188 391.503906 327.382812 377.425781 307.277344 C 342.484375 257.363281 264.070312 244.925781 148.882812 241.03125 C 85.15625 238.882812 40.363281 216.242188 11.933594 171.828125 C -13.066406 132.773438 -22.46875 82.585938 -31.566406 34.042969 C -33.589844 23.265625 -35.675781 12.125 -37.878906 1.496094 C -37.894531 1.421875 -37.902344 1.347656 -37.902344 1.273438 C -37.902344 0.75 -37.535156 0.285156 -37.003906 0.171875 C -36.394531 0.0429688 -35.804688 0.433594 -35.675781 1.039062 C -33.46875 11.691406 -31.378906 22.839844 -29.359375 33.632812 C -20.296875 81.957031 -10.933594 131.9375 13.828125 170.621094 C 27.175781 191.484375 43.65625 207.0625 64.207031 218.265625 C 87.140625 230.765625 115.652344 237.667969 148.964844 238.792969 C 264.84375 242.707031 343.792969 255.3125 379.277344 305.996094 C 393.613281 326.476562 400.824219 353.128906 400.816406 387.578125 C 400.816406 431.601562 389.023438 488.351562 365.261719 561.203125 C 357.367188 585.40625 344.804688 613.339844 331.507812 642.910156 C 312.617188 684.914062 291.210938 732.519531 279.996094 777.542969 C 274.597656 799.222656 271.886719 818.976562 271.886719 836.980469 C 271.886719 861.648438 276.949219 883.027344 287.125 901.5625 C 299.050781 923.296875 318.441406 941.515625 344.761719 955.714844 C 373.652344 971.296875 411.933594 982.636719 458.558594 989.40625 C 502.777344 995.824219 563.753906 988.492188 630.253906 968.75 C 696.371094 949.125 759.296875 919.859375 807.429688 886.339844 C 807.9375 885.988281 808.636719 886.105469 808.996094 886.617188 C 809.128906 886.808594 809.195312 887.035156 809.195312 887.253906 C 809.195312 887.613281 809.03125 887.957031 808.71875 888.179688 C 760.394531 921.828125 697.242188 951.207031 630.898438 970.902344 C 579.902344 986.035156 532.105469 993.914062 492.527344 993.914062 Z M 709.296875 681.132812 C 698.371094 681.132812 688.007812 680.316406 678.636719 678.175781 C 633.511719 667.878906 604.675781 649.996094 590.488281 623.5 C 583.160156 609.820312 580.082031 594.316406 580.082031 577.429688 C 580.082031 534.878906 599.601562 483.484375 619.929688 429.964844 C 638.136719 382.019531 656.96875 332.453125 664.277344 284.261719 C 666.335938 270.679688 667.367188 257.738281 667.367188 245.402344 C 667.367188 208.207031 657.964844 176.5 638.945312 149.226562 C 634.902344 143.421875 629.035156 136.167969 622.242188 127.757812 C 597.84375 97.554688 560.960938 51.902344 550.089844 1.503906 C 550.074219 1.421875 550.066406 1.347656 550.066406 1.265625 C 550.066406 0.75 550.425781 0.285156 550.949219 0.171875 C 551.554688 0.0429688 552.15625 0.425781 552.28125 1.035156 C 563.035156 50.914062 599.714844 96.3125 623.988281 126.347656 C 630.808594 134.789062 636.691406 142.074219 640.78125 147.945312 C 660.074219 175.632812 669.621094 207.773438 669.605469 245.457031 C 669.605469 257.886719 668.558594 270.925781 666.484375 284.601562 C 659.140625 333.023438 640.265625 382.710938 622.019531 430.757812 C 601.773438 484.070312 582.328125 535.261719 582.320312 577.386719 C 582.320312 593.949219 585.324219 609.105469 592.457031 622.4375 C 606.316406 648.316406 634.664062 665.835938 679.121094 675.980469 C 703.484375 681.546875 734.941406 677.996094 765.359375 674.558594 C 780.707031 672.820312 795.203125 671.1875 808.035156 670.835938 C 808.636719 670.835938 809.175781 671.308594 809.191406 671.929688 C 809.191406 671.9375 809.191406 671.953125 809.191406 671.960938 C 809.191406 672.566406 808.710938 673.066406 808.097656 673.082031 C 795.359375 673.433594 780.910156 675.066406 765.613281 676.796875 C 746.605469 678.945312 727.199219 681.140625 709.289062 681.140625 Z M -596.113281 353.105469 C -607.171875 353.105469 -618.65625 352.640625 -630.5625 351.707031 C -631.152344 351.660156 -631.597656 351.167969 -631.597656 350.582031 C -631.597656 350.554688 -631.597656 350.523438 -631.597656 350.492188 C -631.550781 349.871094 -631.003906 349.414062 -630.390625 349.460938 C -575.238281 353.78125 -529.15625 348.027344 -493.421875 332.355469 C -448.746094 312.765625 -419.484375 277.296875 -406.464844 226.945312 C -396.160156 187.082031 -366.855469 85.234375 -317.253906 0.695312 C -316.941406 0.164062 -316.25 -0.015625 -315.71875 0.300781 C -315.359375 0.507812 -315.164062 0.882812 -315.164062 1.273438 C -315.164062 1.46875 -315.21875 1.664062 -315.324219 1.835938 C -364.777344 86.136719 -394.019531 187.742188 -404.292969 227.507812 C -417.5 278.558594 -447.1875 314.523438 -492.523438 334.40625 C -520.867188 346.839844 -555.617188 353.089844 -596.128906 353.089844 Z M -596.113281 353.105469 " fill-opacity="1" fill-rule="nonzero"/></g><path fill="#000000" d="M 472.535156 603.429688 C 471.128906 603.429688 469.75 603.296875 468.402344 603.027344 C 466.253906 602.59375 464.789062 601.617188 464.054688 600.121094 C 462.097656 596.160156 465.550781 589.136719 470.777344 578.492188 C 483.085938 553.445312 505.996094 506.820312 482.957031 443.734375 C 470.550781 409.765625 473.34375 377.75 476.296875 343.851562 C 480.261719 298.257812 484.761719 246.585938 453.804688 177.308594 C 407.976562 74.738281 294.746094 102.585938 219.820312 121.007812 C 192.839844 127.644531 171.523438 132.886719 159.414062 130.671875 C 155.972656 130.042969 138.820312 118.75 124.171875 97.105469 C 110.9375 77.539062 97.023438 44.984375 105.949219 1.046875 C 106.070312 0.441406 106.667969 0.0429688 107.273438 0.171875 C 107.882812 0.300781 108.277344 0.890625 108.152344 1.496094 C 99.382812 44.671875 113.039062 76.640625 126.039062 95.847656 C 140.121094 116.667969 157.078125 127.960938 159.820312 128.460938 C 171.453125 130.585938 192.5625 125.398438 219.28125 118.832031 C 257.09375 109.53125 304.148438 97.960938 348.015625 101.578125 C 371.910156 103.546875 392.664062 110.007812 409.6875 120.785156 C 429.402344 133.253906 444.929688 151.960938 455.847656 176.394531 C 487.039062 246.207031 482.515625 298.191406 478.527344 344.054688 C 475.597656 377.699219 472.828125 409.472656 485.0625 442.972656 C 508.421875 506.953125 485.242188 554.140625 472.785156 579.488281 C 468.207031 588.804688 464.59375 596.160156 466.058594 599.132812 C 466.480469 599.980469 467.386719 600.53125 468.835938 600.824219 C 488.304688 604.742188 513.058594 575.96875 525.742188 545.886719 C 535.839844 521.960938 537.472656 493.96875 539.203125 464.34375 C 540.484375 442.445312 541.800781 419.800781 546.597656 397.125 C 547.648438 392.160156 549.0625 386.859375 550.558594 381.234375 C 557.941406 353.546875 568.058594 315.640625 545.828125 267.300781 C 523.320312 218.371094 523.203125 206.441406 522.851562 171.027344 C 522.753906 161.023438 522.625 148.5625 521.921875 132.894531 C 519.316406 74.976562 488.34375 56.675781 458.386719 38.972656 C 440.925781 28.660156 424.4375 18.917969 414.472656 1.84375 C 414.160156 1.304688 414.339844 0.621094 414.878906 0.308594 C 415.417969 -0.0078125 416.097656 0.171875 416.414062 0.710938 C 426.078125 17.277344 442.324219 26.875 459.523438 37.039062 C 474.460938 45.867188 489.90625 54.988281 502.007812 69.335938 C 515.722656 85.59375 522.960938 106.355469 524.152344 132.796875 C 524.863281 148.507812 524.984375 160.984375 525.089844 171.011719 C 525.441406 206.066406 525.5625 217.875 547.863281 266.371094 C 570.4375 315.445312 560.203125 353.808594 552.730469 381.824219 C 551.242188 387.417969 549.835938 392.699219 548.792969 397.605469 C 544.03125 420.117188 542.714844 442.671875 541.441406 464.484375 C 539.695312 494.3125 538.050781 522.492188 527.808594 546.777344 C 521.292969 562.226562 511.703125 577.109375 501.488281 587.605469 C 491.335938 598.046875 481.417969 603.453125 472.527344 603.453125 Z M 472.535156 603.429688 " fill-opacity="1" fill-rule="nonzero"/><g clip-path="url(#f38023c2af)"><path fill="#000000" d="M 729.007812 630.210938 C 726.933594 630.210938 724.855469 630.171875 722.78125 630.089844 C 693.640625 628.976562 669.300781 620.378906 654.226562 605.871094 C 626.585938 579.265625 637.382812 541.066406 651.300781 513.703125 C 680.882812 455.542969 690.339844 413.359375 697.929688 379.460938 C 708.734375 331.238281 716.542969 296.394531 772.964844 250.121094 C 784.738281 240.46875 796.035156 232.613281 807.527344 226.097656 C 808.066406 225.792969 808.753906 225.980469 809.054688 226.519531 C 809.363281 227.058594 809.175781 227.746094 808.636719 228.046875 C 797.261719 234.5 786.0625 242.289062 774.398438 251.851562 C 718.578125 297.628906 710.839844 332.160156 700.132812 379.9375 C 692.507812 413.960938 683.015625 456.292969 653.308594 514.703125 C 633.839844 552.972656 634.703125 583.9375 655.792969 604.238281 C 687.082031 634.359375 756.652344 633.84375 793.398438 613.339844 C 796.679688 611.511719 799.800781 609.765625 802.789062 608.089844 L 807.535156 605.429688 C 808.074219 605.128906 808.761719 605.316406 809.0625 605.863281 C 809.363281 606.402344 809.175781 607.09375 808.628906 607.390625 L 803.890625 610.050781 C 800.894531 611.726562 797.773438 613.480469 794.492188 615.300781 C 777.542969 624.757812 753.441406 630.195312 729.015625 630.195312 Z M 729.007812 630.210938 " fill-opacity="1" fill-rule="nonzero"/></g><g clip-path="url(#4a07ac4a32)"><path fill="#000000" d="M 779.734375 580.648438 C 765.015625 580.648438 752.59375 576.402344 742.621094 567.925781 C 702.992188 534.265625 714.207031 508.0625 736.554688 455.859375 C 747.152344 431.117188 760.328125 400.332031 771.746094 360.011719 C 778.335938 336.75 790.621094 315.761719 807.289062 299.316406 C 807.730469 298.882812 808.441406 298.882812 808.875 299.324219 C 809.308594 299.765625 809.308594 300.476562 808.867188 300.910156 C 792.476562 317.085938 780.394531 337.730469 773.910156 360.617188 C 762.453125 401.078125 749.238281 431.941406 738.625 456.734375 C 727.40625 482.921875 719.304688 501.847656 718.65625 518.71875 C 717.972656 536.289062 725.574219 550.484375 744.082031 566.203125 C 759.371094 579.199219 780.796875 581.820312 807.765625 573.976562 C 808.359375 573.804688 808.988281 574.148438 809.160156 574.742188 C 809.332031 575.339844 808.988281 575.960938 808.394531 576.132812 C 798.054688 579.136719 788.496094 580.644531 779.742188 580.644531 Z M 779.734375 580.648438 " fill-opacity="1" fill-rule="nonzero"/></g><g clip-path="url(#1b8ad20bb4)"><path fill="#000000" d="M 730.828125 227.042969 C 726.867188 227.042969 723.125 226.367188 719.566406 224.953125 C 702.886719 218.289062 691.566406 195.589844 682.851562 151.339844 C 678.113281 127.269531 663.730469 104.453125 648.5 80.292969 C 632.71875 55.257812 616.402344 29.371094 611.320312 1.476562 C 611.207031 0.867188 611.609375 0.277344 612.222656 0.171875 C 612.839844 0.0664062 613.421875 0.464844 613.527344 1.078125 C 618.535156 28.539062 634.730469 54.242188 650.402344 79.09375 C 665.742188 103.433594 680.230469 126.425781 685.050781 150.90625 C 693.484375 193.730469 704.714844 216.601562 720.398438 222.863281 C 740.488281 230.882812 767.898438 213.121094 807.429688 185.097656 C 807.9375 184.738281 808.636719 184.859375 808.996094 185.367188 C 809.355469 185.875 809.234375 186.574219 808.726562 186.933594 C 775.339844 210.597656 750.429688 227.042969 730.828125 227.042969 Z M 730.828125 227.042969 " fill-opacity="1" fill-rule="nonzero"/></g><g clip-path="url(#2d86af403c)"><path fill="#000000" d="M 752.863281 160.394531 C 742.742188 160.394531 734.386719 158.324219 727.4375 154.175781 C 713.90625 146.113281 705.363281 130.191406 698.882812 100.949219 C 694.980469 83.328125 691.148438 68.5 687.761719 55.417969 C 681.585938 31.535156 677.132812 14.28125 678.058594 1.199219 C 678.105469 0.578125 678.628906 0.113281 679.257812 0.15625 C 679.878906 0.203125 680.34375 0.742188 680.296875 1.355469 C 679.390625 14.070312 683.808594 31.175781 689.933594 54.855469 C 693.316406 67.960938 697.160156 82.808594 701.074219 100.46875 C 707.417969 129.046875 715.644531 144.539062 728.589844 152.253906 C 741.601562 160.011719 759.96875 160.117188 786.390625 152.589844 C 793.292969 150.628906 800.289062 148.628906 807.765625 146.464844 C 808.367188 146.292969 808.988281 146.636719 809.160156 147.226562 C 809.332031 147.828125 808.988281 148.449219 808.394531 148.621094 C 800.910156 150.785156 793.914062 152.792969 787.011719 154.753906 C 773.804688 158.519531 762.53125 160.398438 752.878906 160.398438 Z M 752.863281 160.394531 " fill-opacity="1" fill-rule="nonzero"/></g><g clip-path="url(#ec8687cecf)"><path fill="#000000" d="M 764.707031 114.808594 C 757.140625 114.808594 749.238281 112.300781 739.851562 107.1875 C 718.070312 95.332031 722.347656 64.695312 724.636719 48.226562 C 725.265625 43.71875 725.761719 40.160156 725.609375 38.183594 C 724.652344 25.46875 722.59375 16.257812 720.773438 8.132812 C 720.257812 5.8125 719.761719 3.617188 719.335938 1.484375 C 719.214844 0.875 719.605469 0.285156 720.210938 0.15625 C 720.820312 0.03125 721.410156 0.425781 721.539062 1.035156 C 721.964844 3.144531 722.449219 5.324219 722.96875 7.636719 C 724.800781 15.839844 726.875 25.140625 727.847656 38.011719 C 728.015625 40.230469 727.503906 43.890625 726.859375 48.535156 C 724.488281 65.570312 720.511719 94.09375 740.921875 105.207031 C 764.378906 117.984375 778.035156 114.757812 807.339844 89.488281 C 807.8125 89.085938 808.515625 89.136719 808.929688 89.609375 C 809.332031 90.082031 809.28125 90.785156 808.808594 91.195312 C 790.769531 106.742188 778.273438 114.808594 764.707031 114.808594 Z M 764.707031 114.808594 " fill-opacity="1" fill-rule="nonzero"/></g><g clip-path="url(#60e3247725)"><path fill="#000000" d="M 795.277344 54.578125 C 789.214844 54.578125 783 53.347656 776.671875 50.894531 C 770.449219 48.488281 764.753906 42.152344 761.445312 33.953125 C 757.160156 23.34375 757.492188 11.253906 762.34375 0.792969 C 762.605469 0.230469 763.269531 -0.015625 763.832031 0.246094 C 764.394531 0.507812 764.640625 1.175781 764.378906 1.738281 C 759.78125 11.636719 759.476562 23.074219 763.523438 33.109375 C 766.601562 40.738281 771.820312 46.601562 777.480469 48.789062 C 788.136719 52.921875 798.035156 53.453125 807.746094 50.414062 C 808.335938 50.226562 808.964844 50.554688 809.152344 51.148438 C 809.339844 51.738281 809.011719 52.367188 808.417969 52.554688 C 804.144531 53.894531 799.753906 54.5625 795.285156 54.5625 Z M 795.277344 54.578125 " fill-opacity="1" fill-rule="nonzero"/></g><g clip-path="url(#44d5b28fea)"><path fill="#000000" d="M 808.074219 532.109375 C 808.027344 532.109375 807.992188 532.109375 807.945312 532.109375 C 798.953125 531.089844 786.796875 527.863281 779.898438 518.253906 C 766.234375 499.1875 771.296875 489.003906 778.289062 474.910156 C 784.78125 461.835938 792.859375 445.5625 791.609375 414.976562 C 791.429688 410.648438 794.992188 396.085938 807.144531 378.695312 C 807.496094 378.1875 808.203125 378.058594 808.710938 378.417969 C 809.21875 378.769531 809.339844 379.472656 808.988281 379.984375 C 797.277344 396.742188 793.691406 410.972656 793.855469 414.886719 C 795.128906 446.046875 786.554688 463.308594 780.304688 475.914062 C 773.160156 490.300781 768.847656 498.980469 781.726562 516.953125 C 788.136719 525.894531 799.660156 528.917969 808.195312 529.882812 C 808.808594 529.953125 809.257812 530.511719 809.183594 531.128906 C 809.113281 531.703125 808.628906 532.125 808.066406 532.125 Z M 808.074219 532.109375 " fill-opacity="1" fill-rule="nonzero"/></g><path fill="#000000" d="M 508.445312 403.96875 C 507.898438 403.96875 507.359375 403.933594 506.828125 403.851562 C 501.910156 403.09375 494.023438 398.257812 496.519531 374.316406 C 497.917969 360.863281 498.695312 349.585938 499.386719 339.628906 C 500.621094 321.773438 501.4375 309.980469 504.777344 301.953125 C 508.273438 293.570312 514.328125 289.683594 525.703125 288.546875 C 527.820312 288.335938 529.820312 289.378906 531.640625 291.648438 C 538.175781 299.800781 541.410156 323.660156 538.5 332.492188 C 533.929688 346.367188 533.242188 355.808594 532.574219 364.945312 C 532.15625 370.703125 531.722656 376.660156 530.316406 383.578125 C 528.203125 393.964844 517.191406 403.96875 508.4375 403.96875 Z M 526.226562 290.769531 C 526.128906 290.769531 526.03125 290.769531 525.933594 290.785156 C 504.875 292.890625 504.058594 304.707031 501.632812 339.785156 C 500.941406 349.757812 500.164062 361.058594 498.757812 374.546875 C 497.050781 390.917969 500.035156 400.53125 507.171875 401.625 C 507.605469 401.691406 508.046875 401.722656 508.503906 401.722656 C 516.179688 401.722656 526.242188 392.421875 528.128906 383.128906 C 529.507812 376.351562 529.917969 370.734375 530.351562 364.78125 C 531.027344 355.511719 531.730469 345.925781 536.378906 331.785156 C 539.105469 323.527344 535.921875 300.558594 529.902344 293.046875 C 528.683594 291.527344 527.453125 290.761719 526.234375 290.761719 Z M 525.824219 289.667969 Z M 525.824219 289.667969 " fill-opacity="1" fill-rule="nonzero"/><g clip-path="url(#89e25999c2)"><path fill="#000000" d="M 742.3125 1372.921875 C 705.171875 1372.921875 681.269531 1366.019531 670.992188 1352.253906 C 663.175781 1341.792969 663.316406 1327.386719 671.425781 1309.433594 C 681.113281 1287.996094 690.808594 1277.496094 704.894531 1273.175781 C 718.59375 1268.980469 736.4375 1270.925781 761.128906 1273.632812 C 774.621094 1275.105469 789.910156 1276.777344 808.140625 1277.929688 C 808.761719 1277.96875 809.234375 1278.5 809.191406 1279.121094 C 809.152344 1279.742188 808.628906 1280.207031 808 1280.167969 C 789.714844 1279.015625 774.398438 1277.339844 760.882812 1275.863281 C 711.078125 1270.417969 692.441406 1268.375 673.46875 1310.355469 C 665.71875 1327.503906 665.496094 1341.148438 672.789062 1350.90625 C 687.710938 1370.878906 733.171875 1375.777344 807.917969 1365.464844 C 808.53125 1365.375 809.097656 1365.808594 809.183594 1366.421875 C 809.265625 1367.039062 808.835938 1367.605469 808.222656 1367.6875 C 782.953125 1371.179688 760.957031 1372.917969 742.3125 1372.917969 Z M 742.3125 1372.921875 " fill-opacity="1" fill-rule="nonzero"/></g><path fill="#000000" d="M 593.148438 1373.828125 C 575.648438 1373.828125 553.359375 1360.214844 528.351562 1344.9375 C 525.800781 1343.378906 523.226562 1341.800781 520.625 1340.226562 C 503.660156 1329.9375 482.824219 1324.914062 462.675781 1320.054688 C 433.84375 1313.097656 404.027344 1305.898438 384.332031 1283.230469 C 383.101562 1281.816406 379.179688 1275.152344 376.761719 1267.042969 C 374.621094 1259.867188 373.113281 1249.691406 378.109375 1241.976562 C 387.191406 1227.957031 413.460938 1227.425781 456.207031 1240.390625 C 497.542969 1252.925781 526.992188 1240.574219 550.648438 1230.644531 C 563.363281 1225.3125 574.339844 1220.707031 585.300781 1220.246094 L 585.347656 1221.367188 L 585.300781 1220.246094 C 601.71875 1219.539062 613.421875 1223.140625 621.082031 1231.230469 C 634.804688 1245.726562 632.238281 1272 629.976562 1295.175781 C 629.484375 1300.230469 629.019531 1305.007812 628.710938 1309.597656 C 626.449219 1344.003906 618.882812 1364.078125 605.570312 1370.976562 C 601.765625 1372.953125 597.601562 1373.835938 593.140625 1373.835938 Z M 406.179688 1233.34375 C 393.097656 1233.34375 384.246094 1236.621094 380.003906 1243.183594 C 371.503906 1256.300781 383.402344 1278.714844 386.039062 1281.75 C 405.265625 1303.878906 434.71875 1310.992188 463.214844 1317.867188 C 483.527344 1322.773438 504.535156 1327.839844 521.800781 1338.304688 C 524.398438 1339.882812 526.984375 1341.457031 529.535156 1343.015625 C 560.347656 1361.839844 586.957031 1378.089844 604.550781 1368.96875 C 617.105469 1362.460938 624.277344 1342.984375 626.488281 1309.433594 C 626.792969 1304.8125 627.257812 1300.019531 627.753906 1294.945312 C 629.96875 1272.246094 632.484375 1246.515625 619.464844 1232.757812 C 612.277344 1225.164062 601.136719 1221.800781 585.414062 1222.46875 C 574.847656 1222.917969 564.042969 1227.449219 551.535156 1232.699219 C 527.539062 1242.761719 497.679688 1255.292969 455.570312 1242.515625 C 435.394531 1236.398438 418.816406 1233.335938 406.183594 1233.335938 Z M 406.179688 1233.34375 " fill-opacity="1" fill-rule="nonzero"/><path fill="#000000" d="M 574.03125 1339.882812 C 568.296875 1339.882812 562.253906 1338.566406 555.9375 1335.929688 C 542.691406 1330.402344 531.429688 1320.464844 524.699219 1314.527344 C 522.363281 1312.46875 520.515625 1310.835938 519.625 1310.332031 C 509.753906 1304.777344 496.257812 1302.273438 483.207031 1299.855469 C 465.949219 1296.660156 449.640625 1293.640625 441.675781 1283.988281 C 438.566406 1280.230469 437.722656 1277.007812 439.152344 1274.433594 C 444.378906 1265.011719 480.195312 1268.480469 510.820312 1272.554688 C 514.210938 1273.003906 516.867188 1273.390625 517.429688 1273.355469 C 532.304688 1273.121094 542.570312 1266.785156 551.632812 1261.207031 C 564.710938 1253.140625 576.007812 1246.171875 595.691406 1259.597656 C 605.539062 1266.316406 612.195312 1279.300781 613.070312 1293.5 C 613.960938 1308.019531 608.789062 1321.335938 598.890625 1330.042969 C 591.417969 1336.605469 583.105469 1339.890625 574.039062 1339.890625 Z M 462.757812 1270.644531 C 451.917969 1270.644531 443.15625 1271.855469 441.121094 1275.527344 C 440.183594 1277.21875 440.957031 1279.585938 443.410156 1282.566406 C 450.855469 1291.589844 466.769531 1294.539062 483.617188 1297.65625 C 496.855469 1300.105469 510.542969 1302.636719 520.730469 1308.378906 C 521.832031 1309 523.570312 1310.527344 526.195312 1312.847656 C 535.691406 1321.230469 554.304688 1337.652344 573.980469 1337.652344 C 581.789062 1337.652344 589.761719 1335.0625 597.40625 1328.351562 C 606.789062 1320.105469 611.679688 1307.449219 610.832031 1293.632812 C 610 1280.117188 603.71875 1267.78125 594.433594 1261.453125 C 575.964844 1248.851562 565.75 1255.148438 552.820312 1263.125 C 543.515625 1268.859375 532.972656 1275.359375 517.476562 1275.609375 C 516.816406 1275.609375 514.863281 1275.367188 510.535156 1274.792969 C 500.914062 1273.511719 479.394531 1270.652344 462.765625 1270.652344 Z M 462.757812 1270.644531 " fill-opacity="1" fill-rule="nonzero"/><g clip-path="url(#0c6ec5fd6f)"><path fill="#000000" d="M 741.339844 1339.058594 C 728.140625 1339.058594 719.207031 1336.417969 714.632812 1331.128906 C 709.691406 1325.414062 711.847656 1318.609375 712.335938 1317.296875 C 720.136719 1296.132812 752.390625 1288.9375 808.207031 1295.910156 C 808.824219 1295.984375 809.265625 1296.546875 809.183594 1297.160156 C 809.105469 1297.773438 808.546875 1298.210938 807.933594 1298.132812 C 753.289062 1291.304688 721.835938 1298.015625 714.441406 1318.070312 C 714.035156 1319.167969 712.214844 1324.890625 716.332031 1329.652344 C 721.589844 1335.734375 737.003906 1341.035156 780.582031 1331.796875 C 790.335938 1329.722656 799.359375 1329.085938 808.171875 1329.863281 C 808.792969 1329.917969 809.25 1330.460938 809.191406 1331.085938 C 809.136719 1331.707031 808.582031 1332.164062 807.96875 1332.101562 C 799.390625 1331.347656 790.578125 1331.96875 781.046875 1333.996094 C 765.128906 1337.375 751.875 1339.058594 741.332031 1339.058594 Z M 741.339844 1339.058594 " fill-opacity="1" fill-rule="nonzero"/></g><path fill="#000000" d="M 178.492188 98.804688 C 167.644531 98.804688 158.71875 94.417969 151.949219 85.738281 C 138.242188 68.160156 135.488281 34.890625 144.929688 0.972656 C 145.09375 0.375 145.714844 0.03125 146.3125 0.195312 C 146.914062 0.359375 147.265625 0.980469 147.09375 1.582031 C 137.972656 34.320312 140.636719 67.585938 153.71875 84.359375 C 160.238281 92.726562 168.910156 96.820312 179.488281 96.542969 C 207.078125 95.824219 234.429688 82.921875 260.882812 70.453125 C 300.445312 51.800781 337.8125 34.179688 372.441406 57.78125 C 386.636719 67.457031 404.671875 73.261719 412.96875 64.410156 C 417.867188 59.191406 416.757812 50.339844 410.144531 41.871094 C 402.921875 32.605469 392.707031 23.484375 381.890625 13.832031 C 377.621094 10.027344 373.210938 6.089844 368.953125 2.105469 C 368.496094 1.675781 368.472656 0.964844 368.898438 0.515625 C 369.324219 0.0664062 370.039062 0.0390625 370.488281 0.464844 C 374.730469 4.433594 379.125 8.355469 383.386719 12.160156 C 394.28125 21.882812 404.566406 31.070312 411.921875 40.5 C 419.25 49.890625 420.304688 59.886719 414.609375 65.960938 C 408.460938 72.519531 393.40625 74.796875 371.175781 59.65625 C 337.609375 36.777344 300.804688 54.128906 261.839844 72.503906 C 235.179688 85.078125 207.609375 98.078125 179.546875 98.8125 C 179.195312 98.820312 178.835938 98.828125 178.484375 98.828125 Z M 178.492188 98.804688 " fill-opacity="1" fill-rule="nonzero"/><path fill="#000000" d="M 205.484375 56.816406 C 201.140625 56.816406 198.042969 56.195312 196.3125 55.851562 C 182.96875 53.175781 175.070312 48.652344 172.152344 42.019531 C 167.71875 31.945312 175.019531 18.535156 185.808594 0.6875 C 186.128906 0.15625 186.820312 -0.015625 187.351562 0.308594 C 187.882812 0.628906 188.054688 1.316406 187.730469 1.851562 C 177.296875 19.109375 170.210938 32.027344 174.210938 41.105469 C 176.808594 47.015625 184.183594 51.117188 196.753906 53.632812 C 199.597656 54.203125 202.46875 54.472656 205.328125 54.472656 C 232.199219 54.472656 259.25 30.710938 277.976562 9.59375 C 280.320312 6.949219 282.429688 3.960938 284.25 0.710938 C 284.546875 0.171875 285.238281 -0.0234375 285.777344 0.277344 C 286.316406 0.578125 286.511719 1.265625 286.210938 1.804688 C 284.316406 5.195312 282.109375 8.320312 279.660156 11.082031 C 260.089844 33.152344 241.226562 47.433594 223.601562 53.535156 C 216.242188 56.082031 210.148438 56.800781 205.492188 56.800781 Z M 205.484375 56.816406 " fill-opacity="1" fill-rule="nonzero"/><g clip-path="url(#bbfa33e18f)"><path fill="#000000" d="M 360.714844 743.507812 C 357.636719 743.507812 354.882812 742.886719 352.53125 741.539062 C 344.582031 736.976562 342.042969 725.054688 344.777344 705.082031 C 347.671875 683.90625 361.1875 665.21875 375.488281 645.441406 C 395.359375 617.972656 417.871094 586.835938 418.726562 540.78125 C 419.296875 510.054688 421.8125 478.730469 424.238281 448.4375 C 431.476562 358.160156 438.320312 272.894531 391.015625 228.046875 C 358.394531 197.109375 302.226562 187.488281 219.304688 198.613281 C 197.167969 201.589844 168.4375 198 140.480469 188.765625 C 110.9375 179.015625 84.371094 163.816406 65.667969 145.960938 C 43.238281 124.542969 32.554688 99.867188 34.753906 74.59375 C 37.507812 43.007812 36.984375 21.148438 32.988281 1.496094 C 32.859375 0.890625 33.257812 0.300781 33.863281 0.171875 C 34.46875 0.0507812 35.0625 0.441406 35.1875 1.046875 C 39.230469 20.921875 39.769531 42.976562 36.992188 74.789062 C 34.851562 99.359375 45.304688 123.40625 67.21875 144.335938 C 85.683594 161.964844 111.945312 176.988281 141.175781 186.632812 C 168.820312 195.753906 197.1875 199.3125 219 196.382812 C 302.636719 185.15625 359.40625 194.976562 392.558594 226.414062 C 440.640625 272.003906 433.761719 357.792969 426.476562 448.617188 C 424.050781 478.878906 421.542969 510.167969 420.972656 540.816406 C 420.105469 587.578125 397.367188 619.023438 377.308594 646.761719 C 363.171875 666.304688 349.820312 684.765625 347 705.390625 C 344.4375 724.082031 346.675781 735.589844 353.648438 739.589844 C 370.410156 749.207031 413.117188 715.671875 444.300781 691.183594 C 461.710938 677.515625 476.738281 665.714844 484.515625 663.191406 C 514.523438 653.449219 548.105469 653.890625 584.3125 664.507812 C 614.65625 673.40625 641.132812 687.695312 658.652344 697.144531 C 664.964844 700.550781 670.414062 703.496094 674.472656 705.335938 C 691.140625 712.902344 713.003906 710.542969 738.308594 707.808594 C 754.839844 706.027344 771.933594 704.175781 789.8125 704.8125 C 796.019531 705.039062 802.167969 705.179688 808.082031 705.238281 C 808.703125 705.238281 809.195312 705.757812 809.191406 706.378906 C 809.191406 707 808.671875 707.484375 808.050781 707.484375 C 802.121094 707.425781 795.953125 707.285156 789.730469 707.058594 C 772.015625 706.429688 755.003906 708.265625 738.546875 710.046875 C 712.90625 712.816406 690.765625 715.207031 673.542969 707.390625 C 669.417969 705.515625 663.929688 702.558594 657.582031 699.128906 C 621.292969 679.546875 553.742188 643.082031 485.207031 665.332031 C 477.808594 667.734375 462.921875 679.417969 445.6875 692.949219 C 416.585938 715.796875 381.296875 743.507812 360.707031 743.507812 Z M 360.714844 743.507812 " fill-opacity="1" fill-rule="nonzero"/></g><path fill="#000000" d="M 435.902344 650.828125 C 430.652344 650.828125 426.976562 649.480469 424.777344 646.777344 C 417.574219 637.945312 427.457031 616.617188 439.976562 589.605469 C 455 557.1875 473.703125 516.839844 466.675781 486.988281 C 453.527344 431.160156 451.714844 380.65625 450.113281 336.09375 C 446.585938 237.742188 444.257812 172.769531 322.121094 156.789062 C 305.347656 154.597656 283.15625 156.558594 259.652344 158.632812 C 241.0625 160.273438 221.265625 162.023438 201.6875 162.023438 C 146.882812 162.023438 93.738281 148.328125 73.179688 80.25 C 65.390625 54.449219 72.976562 25.65625 81.421875 0.898438 C 81.625 0.316406 82.261719 0 82.84375 0.195312 C 83.429688 0.398438 83.742188 1.035156 83.546875 1.617188 C 75.214844 26.039062 67.726562 54.40625 75.328125 79.597656 C 102.699219 170.242188 189.617188 162.5625 259.453125 156.394531 C 283.074219 154.304688 305.386719 152.335938 322.402344 154.558594 C 352.570312 158.503906 376.117188 165.46875 394.394531 175.84375 C 411.34375 185.464844 423.832031 198.105469 432.570312 214.492188 C 449.109375 245.507812 450.613281 287.445312 452.351562 336.003906 C 453.945312 380.460938 455.75 430.847656 468.851562 486.464844 C 476.0625 517.070312 457.179688 557.808594 442.003906 590.542969 C 430.300781 615.792969 420.1875 637.601562 426.503906 645.34375 C 429.539062 649.058594 436.410156 649.582031 447.523438 646.949219 C 476.152344 640.164062 501.878906 623.378906 521.9375 598.429688 C 544.113281 570.832031 558.378906 535.058594 564.34375 492.089844 C 566.582031 475.980469 572.664062 461.273438 579.109375 445.703125 C 589.957031 419.480469 601.179688 392.371094 595.222656 355.269531 C 583.390625 281.574219 587.683594 233.625 590.820312 198.613281 C 595.386719 147.601562 597.910156 119.503906 549.199219 69.21875 C 534.558594 54.097656 521.75 41.964844 510.453125 31.265625 C 498.957031 20.375 489.03125 10.972656 481.050781 2.015625 C 480.636719 1.550781 480.675781 0.839844 481.140625 0.425781 C 481.605469 0.015625 482.316406 0.0507812 482.726562 0.515625 C 490.648438 9.40625 500.539062 18.78125 511.992188 29.632812 C 523.308594 40.347656 536.132812 52.503906 550.808594 67.652344 C 600.230469 118.679688 597.675781 147.144531 593.050781 198.816406 C 589.929688 233.707031 585.644531 281.5 597.429688 354.917969 C 603.488281 392.640625 592.144531 420.054688 581.175781 446.566406 C 574.789062 462 568.753906 476.582031 566.558594 492.394531 C 560.539062 535.777344 546.113281 571.925781 523.679688 599.835938 C 503.316406 625.1875 477.15625 642.230469 448.039062 649.132812 C 443.320312 650.25 439.277344 650.8125 435.894531 650.8125 Z M 435.902344 650.828125 " fill-opacity="1" fill-rule="nonzero"/><path fill="#000000" d="M 123.125 962.84375 C 98.539062 962.84375 74.8125 942.707031 70.414062 917.445312 C 65.152344 887.238281 73.214844 866.140625 81.742188 843.808594 C 89.613281 823.214844 98.523438 799.875 98.097656 765.824219 C 97.601562 726.738281 84.910156 679.132812 59.296875 620.296875 C 49.203125 597.101562 49.390625 577.355469 59.875 559.921875 C 69.1875 544.433594 85.675781 532.117188 101.621094 520.203125 C 123.417969 503.921875 145.945312 487.078125 151.996094 461.542969 C 152.953125 457.484375 152.761719 447.082031 152.542969 435.03125 C 151.90625 400.472656 150.949219 348.253906 173.167969 346.410156 C 191.492188 344.898438 210.785156 352.46875 227.488281 367.746094 C 250.09375 388.402344 264.835938 419.679688 265.050781 447.441406 C 265.253906 472.875 253.171875 498.171875 240.375 524.957031 C 225.167969 556.785156 209.445312 589.695312 212.882812 625.980469 C 219.621094 697.097656 209.691406 727.421875 198.199219 762.535156 C 189.027344 790.550781 178.636719 822.304688 176.457031 881.207031 C 175.46875 907.777344 169.875 928.46875 159.828125 942.707031 C 151.210938 954.914062 139.566406 961.847656 126.152344 962.753906 C 125.148438 962.820312 124.136719 962.859375 123.132812 962.859375 Z M 173.34375 348.660156 C 153.214844 350.320312 154.191406 403.324219 154.773438 434.996094 C 155.003906 447.695312 155.191406 457.730469 154.167969 462.066406 C 147.929688 488.40625 125.066406 505.488281 102.953125 522.015625 C 70.355469 546.367188 39.570312 569.378906 61.347656 619.410156 C 87.082031 678.535156 99.839844 726.417969 100.335938 765.808594 C 100.769531 800.285156 91.777344 823.84375 83.839844 844.625 C 75.058594 867.625 67.472656 887.476562 72.625 917.078125 C 77.011719 942.285156 101.449219 962.175781 125.984375 960.515625 C 138.699219 959.652344 149.765625 953.046875 157.976562 941.410156 C 167.769531 927.542969 173.222656 907.261719 174.195312 881.125 C 176.390625 821.914062 186.832031 789.996094 196.050781 761.839844 C 207.46875 726.964844 217.320312 696.84375 210.636719 626.1875 C 207.140625 589.292969 222.996094 556.09375 238.335938 523.992188 C 251.019531 497.449219 262.992188 472.378906 262.789062 447.464844 C 262.582031 420.300781 248.125 389.667969 225.960938 369.410156 C 209.722656 354.566406 191.027344 347.199219 173.34375 348.660156 Z M 173.34375 348.660156 " fill-opacity="1" fill-rule="nonzero"/><path fill="#000000" d="M 122.308594 897.730469 C 120.199219 897.730469 118.117188 897.136719 116.074219 895.945312 C 93.5 882.8125 103.847656 852.128906 116.949219 813.292969 C 131.929688 768.878906 150.582031 713.597656 131.285156 658.128906 C 127.355469 646.828125 123.5 637.585938 120.109375 629.433594 C 104.886719 592.917969 100.296875 581.894531 149.882812 532.332031 C 186.242188 496 182.566406 458.628906 180.132812 433.902344 C 178.597656 418.289062 177.488281 407.011719 186.378906 402.570312 C 197.628906 396.945312 212.371094 402.472656 222.21875 416.003906 C 228.019531 423.980469 236.863281 441.546875 230.875 469.617188 C 225.273438 495.871094 208.441406 523.453125 180.84375 551.601562 C 164.902344 567.859375 157.828125 586.003906 159.214844 607.0625 C 160.433594 625.71875 167.898438 644.132812 175.109375 661.941406 C 181.023438 676.542969 186.609375 690.335938 188.375 703.300781 C 189.355469 710.496094 182.96875 752.792969 172.136719 796.480469 C 154.828125 866.3125 139.710938 888.652344 130.082031 895.101562 C 127.46875 896.851562 124.871094 897.722656 122.308594 897.722656 Z M 187.371094 404.578125 C 179.863281 408.328125 180.910156 418.960938 182.363281 433.675781 C 184.835938 458.824219 188.578125 496.828125 151.472656 533.914062 C 126.808594 558.566406 116.011719 573.214844 112.972656 586.175781 C 109.925781 599.15625 114.800781 610.851562 122.183594 628.5625 C 125.597656 636.75 129.460938 646.019531 133.414062 657.386719 C 152.960938 713.582031 134.175781 769.269531 119.082031 814.011719 C 112.480469 833.582031 106.78125 850.484375 105.367188 864.246094 C 103.855469 878.960938 107.621094 888.421875 117.210938 894 C 120.984375 896.195312 124.789062 895.945312 128.839844 893.234375 C 141.984375 884.4375 156.59375 849.882812 169.957031 795.941406 C 180.730469 752.492188 187.101562 710.625 186.144531 703.597656 C 184.414062 690.914062 178.882812 677.246094 173.019531 662.777344 C 158.71875 627.484375 142.515625 587.480469 179.234375 550.019531 C 206.523438 522.1875 223.160156 494.972656 228.671875 469.144531 C 234.476562 441.929688 225.976562 424.996094 220.398438 417.320312 C 211.355469 404.898438 197.472656 399.535156 187.378906 404.574219 Z M 186.871094 403.574219 Z M 186.871094 403.574219 " fill-opacity="1" fill-rule="nonzero"/><path fill="#000000" d="M 55.179688 319.167969 C 48.597656 319.167969 39.703125 315.648438 28.308594 308.570312 C 19.90625 303.351562 16.5625 298.347656 11.484375 290.769531 C 4.550781 280.414062 -5.921875 264.753906 -38.058594 236.378906 C -72.84375 205.65625 -72.460938 181.660156 -71.765625 138.113281 C -71.578125 126.222656 -71.359375 112.742188 -71.839844 97.269531 C -72.640625 71.441406 -79.53125 41.058594 -93.5 1.65625 C -93.710938 1.070312 -93.402344 0.425781 -92.820312 0.21875 C -92.234375 0.0078125 -91.589844 0.316406 -91.382812 0.898438 C -77.328125 40.535156 -70.402344 71.136719 -69.59375 97.195312 C -69.113281 112.71875 -69.332031 126.230469 -69.519531 138.144531 C -70.199219 181.03125 -70.582031 204.652344 -36.566406 234.695312 C -4.214844 263.265625 6.355469 279.066406 13.347656 289.519531 C 18.261719 296.859375 21.503906 301.703125 29.492188 306.660156 C 45.609375 316.675781 56.578125 319.363281 62.089844 314.644531 C 67.78125 309.785156 67.996094 296.621094 62.710938 276.578125 C 58.832031 261.871094 53.195312 248.054688 51.5625 244.167969 C 43.589844 225.222656 25.890625 216.3125 7.148438 206.882812 C -21.03125 192.699219 -50.179688 178.035156 -48.390625 127.644531 C -46.796875 82.800781 -55.128906 51.148438 -61.824219 25.722656 C -64.074219 17.179688 -66.195312 9.097656 -67.691406 1.484375 C -67.8125 0.875 -67.414062 0.285156 -66.808594 0.164062 C -66.203125 0.0429688 -65.609375 0.441406 -65.492188 1.046875 C -64.007812 8.597656 -61.898438 16.632812 -59.652344 25.148438 C -52.921875 50.722656 -44.542969 82.546875 -46.144531 127.726562 C -47.882812 176.679688 -19.394531 191.015625 8.160156 204.875 C 27.28125 214.5 45.339844 223.582031 53.636719 243.292969 C 57.851562 253.304688 78.136719 303.890625 63.550781 316.34375 C 61.355469 318.214844 58.578125 319.152344 55.179688 319.152344 Z M 55.179688 319.167969 " fill-opacity="1" fill-rule="nonzero"/><path fill="#000000" d="M 356.949219 1439.78125 C 356.71875 1439.78125 356.476562 1439.707031 356.277344 1439.558594 C 352.597656 1436.816406 348.886719 1434.082031 345.15625 1431.34375 C 324.117188 1415.863281 302.351562 1399.867188 286.457031 1381.117188 C 220.347656 1303.097656 201.34375 1297.699219 130.65625 1277.609375 C 114.359375 1272.972656 95.886719 1267.722656 73.378906 1260.625 C -12.390625 1233.535156 -14.152344 1196.476562 -16.1875 1153.558594 C -16.890625 1138.753906 -17.617188 1123.445312 -21.691406 1107.316406 C -35.632812 1052.117188 -37.863281 1016.941406 -40.027344 982.929688 C -42.59375 942.496094 -45.019531 904.3125 -68.5 838.230469 C -75.839844 817.5625 -82.144531 797.644531 -87.699219 780.066406 C -98.757812 745.085938 -108.308594 714.871094 -120.902344 695.03125 C -134.378906 673.808594 -150.492188 665.429688 -173.148438 667.878906 C -200.074219 670.785156 -218.835938 687.070312 -230.5 717.6875 C -240.726562 744.527344 -244.089844 778.472656 -247.046875 808.425781 C -248.550781 823.605469 -249.96875 837.945312 -252.132812 850.175781 C -260.417969 896.980469 -278.636719 947.796875 -303.433594 993.277344 C -328.5 1039.257812 -358.238281 1075.878906 -387.164062 1096.390625 C -497.695312 1174.75 -541.75 1174.203125 -630.742188 1153.175781 C -631.347656 1153.035156 -631.722656 1152.425781 -631.574219 1151.828125 C -631.429688 1151.222656 -630.824219 1150.855469 -630.226562 1150.988281 C -584.621094 1161.765625 -551.378906 1166.625 -516.375 1159.617188 C -481.066406 1152.546875 -442.8125 1133.082031 -388.457031 1094.554688 C -359.804688 1074.238281 -330.304688 1037.886719 -305.402344 992.199219 C -280.726562 946.929688 -262.589844 896.351562 -254.339844 849.777344 C -252.191406 837.632812 -250.777344 823.335938 -249.277344 808.203125 C -243.289062 747.6875 -235.839844 672.371094 -173.382812 665.640625 C -123.226562 660.21875 -108.226562 707.628906 -85.550781 779.386719 C -80 796.945312 -73.703125 816.84375 -66.382812 837.476562 C -42.796875 903.855469 -40.363281 942.195312 -37.789062 982.785156 C -35.632812 1016.703125 -33.410156 1051.769531 -19.519531 1106.769531 C -15.394531 1123.117188 -14.660156 1138.542969 -13.957031 1153.453125 C -12.953125 1174.5625 -12.011719 1194.5 -0.863281 1212.015625 C 11.535156 1231.492188 35.339844 1246.261719 74.039062 1258.480469 C 96.515625 1265.574219 114.972656 1270.824219 131.257812 1275.449219 C 166.09375 1285.351562 189.109375 1291.894531 211.234375 1305.660156 C 232.84375 1319.09375 254.40625 1339.847656 288.148438 1379.671875 C 303.875 1398.21875 325.527344 1414.140625 346.460938 1429.546875 C 350.1875 1432.285156 353.910156 1435.027344 357.59375 1437.769531 C 358.085938 1438.140625 358.191406 1438.839844 357.824219 1439.339844 C 357.609375 1439.632812 357.265625 1439.789062 356.925781 1439.789062 Z M 356.949219 1439.78125 " fill-opacity="1" fill-rule="nonzero"/><path fill="#000000" d="M -577.597656 1036.71875 C -594.355469 1036.71875 -611.882812 1035.230469 -630.652344 1032.226562 C -631.265625 1032.128906 -631.6875 1031.550781 -631.582031 1030.9375 C -631.484375 1030.324219 -630.90625 1029.90625 -630.292969 1030.007812 C -603.332031 1034.324219 -578.953125 1035.492188 -555.757812 1033.589844 C -511.585938 1029.964844 -484.816406 1021.039062 -466.265625 1003.746094 C -447.972656 986.695312 -436.929688 961.152344 -421.640625 925.796875 C -405.707031 888.953125 -385.882812 843.097656 -348.804688 783.078125 C -330.984375 754.214844 -323.183594 721.878906 -314.933594 687.640625 C -305.910156 650.226562 -296.589844 611.542969 -272.976562 577.796875 C -244.765625 537.472656 -180.546875 522.679688 -118.441406 508.371094 C -53.128906 493.324219 8.5625 479.113281 21.953125 436.90625 C 27.800781 418.476562 24.144531 396.078125 10.796875 368.421875 C -3.96875 337.84375 -30.070312 301.832031 -68.996094 258.328125 C -97.664062 226.292969 -114.945312 193.089844 -121.832031 156.8125 C -127.828125 125.242188 -125.132812 95.675781 -122.769531 69.585938 C -120.425781 43.816406 -118.402344 21.566406 -124.28125 1.582031 C -124.453125 0.988281 -124.117188 0.359375 -123.515625 0.1875 C -122.925781 0.0078125 -122.296875 0.351562 -122.125 0.953125 C -116.125 21.351562 -118.269531 44.878906 -120.53125 69.792969 C -122.886719 95.734375 -125.5625 125.136719 -119.632812 156.402344 C -112.824219 192.265625 -95.71875 225.117188 -67.332031 256.839844 C -28.265625 300.5 -2.050781 336.683594 12.808594 367.457031 C 26.421875 395.648438 30.113281 418.59375 24.085938 437.59375 C 10.308594 481.019531 -51.984375 495.375 -117.945312 510.5625 C -179.640625 524.777344 -243.429688 539.46875 -271.148438 579.085938 C -294.515625 612.476562 -303.792969 650.953125 -312.761719 688.164062 C -320.691406 721.070312 -328.898438 755.09375 -346.910156 784.253906 C -383.90625 844.140625 -403.695312 889.910156 -419.597656 926.6875 C -450.660156 998.535156 -463.523438 1028.28125 -555.59375 1035.828125 C -562.8125 1036.417969 -570.132812 1036.71875 -577.613281 1036.71875 Z M -630.472656 463.273438 C -630.9375 463.273438 -631.371094 462.980469 -631.527344 462.523438 C -631.738281 461.941406 -631.429688 461.296875 -630.839844 461.09375 C -595.949219 448.78125 -554.253906 426.53125 -491.136719 392.847656 C -475.644531 384.582031 -458.089844 375.214844 -439.371094 365.328125 C -396.027344 342.433594 -366.332031 314.074219 -348.589844 278.632812 C -332.871094 247.238281 -328.089844 214.078125 -323.453125 182.019531 C -317.375 139.890625 -311.625 100.101562 -282.46875 67.0625 C -274.976562 58.570312 -266.484375 45.621094 -257.492188 31.917969 C -250.703125 21.566406 -243.679688 10.859375 -236.191406 0.605469 C -235.824219 0.105469 -235.121094 0 -234.617188 0.359375 C -234.117188 0.726562 -234.011719 1.429688 -234.371094 1.933594 C -241.828125 12.140625 -248.835938 22.816406 -255.605469 33.144531 C -264.640625 46.917969 -273.175781 59.933594 -280.777344 68.542969 C -309.492188 101.074219 -315.1875 140.546875 -321.222656 182.335938 C -325.878906 214.574219 -330.695312 247.914062 -346.566406 279.636719 C -364.527344 315.511719 -394.539062 344.195312 -438.308594 367.3125 C -457.019531 377.199219 -474.574219 386.566406 -490.058594 394.824219 C -553.265625 428.554688 -595.019531 450.839844 -630.070312 463.207031 C -630.195312 463.25 -630.316406 463.273438 -630.441406 463.273438 Z M -630.472656 463.273438 " fill-opacity="1" fill-rule="nonzero"/><path fill="#000000" d="M 324.132812 522.261719 C 322.042969 522.261719 320.367188 521.738281 319.058594 520.6875 C 312.589844 515.550781 316.839844 499.5625 322.726562 477.433594 C 329.261719 452.847656 337.394531 422.25 331.777344 398.789062 C 325.121094 370.972656 298.199219 347.863281 285.261719 336.757812 C 281.792969 333.785156 279.292969 331.636719 278.050781 330.207031 C 265.613281 315.859375 265.5 305.90625 267.597656 300.085938 C 270.070312 293.21875 276.800781 288.53125 286.539062 286.90625 C 305.25 283.777344 333.550781 292.34375 354.589844 318.53125 C 378.675781 348.515625 375.855469 370.496094 371.578125 403.765625 C 370.128906 415.046875 368.488281 427.828125 367.730469 442.597656 C 367.730469 442.738281 367.753906 443.34375 367.785156 443.988281 C 369.527344 480.542969 359.800781 506.355469 340.394531 516.675781 C 333.371094 520.410156 328.042969 522.253906 324.140625 522.253906 Z M 294.625 288.488281 C 292.042969 288.488281 289.46875 288.6875 286.90625 289.117188 C 277.996094 290.605469 271.894531 294.769531 269.710938 300.84375 C 267.035156 308.273438 270.601562 318.179688 279.75 328.730469 C 280.878906 330.042969 283.457031 332.25 286.71875 335.050781 C 299.835938 346.3125 327.136719 369.738281 333.964844 398.261719 C 339.714844 422.273438 331.5 453.179688 324.898438 478.011719 C 319.664062 497.707031 315.140625 514.710938 320.457031 518.929688 C 323.363281 521.234375 329.71875 519.8125 339.339844 514.699219 C 357.9375 504.804688 367.246094 479.734375 365.539062 444.101562 C 365.492188 443.128906 365.46875 442.722656 365.484375 442.484375 C 366.25 427.625 367.894531 414.796875 369.347656 403.484375 C 373.546875 370.78125 376.320312 349.175781 352.839844 319.9375 C 340.027344 303.996094 317.199219 288.488281 294.625 288.488281 Z M 294.625 288.488281 " fill-opacity="1" fill-rule="nonzero"/><g clip-path="url(#6667ccb0fb)"><path fill="#000000" d="M 469.289062 954.851562 C 456.386719 954.851562 443.402344 954.015625 430.675781 952.300781 C 382.824219 945.84375 346.960938 928.484375 332.285156 904.671875 C 319.875 884.535156 316.871094 850.304688 373.039062 801.613281 C 391.082031 785.96875 405.714844 771.183594 418.621094 758.148438 C 445.835938 730.648438 465.5 710.78125 495.230469 703.703125 C 526.265625 696.320312 566.296875 703.644531 629.101562 728.199219 C 654.085938 737.972656 675.402344 744.929688 698.238281 747.117188 C 720.742188 749.273438 744.679688 747.050781 778.265625 739.679688 C 790.417969 737.007812 799.605469 734.992188 807.84375 733.253906 C 808.449219 733.128906 809.046875 733.515625 809.175781 734.125 C 809.300781 734.730469 808.914062 735.328125 808.304688 735.457031 C 800.078125 737.203125 790.890625 739.207031 778.746094 741.882812 C 753.441406 747.429688 733.300781 750.121094 715.03125 750.121094 C 685.847656 750.121094 661.421875 743.265625 628.277344 730.304688 C 565.9375 705.921875 526.300781 698.628906 495.746094 705.898438 C 466.644531 712.824219 447.171875 732.507812 420.214844 759.734375 C 407.277344 772.800781 392.617188 787.621094 374.515625 803.320312 C 331 841.046875 317.066406 875.691406 334.203125 903.503906 C 348.527344 926.738281 383.796875 943.71875 430.984375 950.082031 C 476.871094 956.277344 526.085938 950.988281 562.621094 935.945312 C 616.550781 913.730469 630.230469 911.671875 666.792969 906.183594 C 678.222656 904.46875 692.449219 902.328125 710.851562 899.105469 C 754.554688 891.46875 783.859375 869.488281 807.40625 851.832031 C 807.902344 851.457031 808.605469 851.5625 808.980469 852.054688 C 809.355469 852.550781 809.25 853.253906 808.753906 853.628906 C 785.019531 871.429688 755.476562 893.585938 711.242188 901.316406 C 692.816406 904.535156 678.574219 906.679688 667.128906 908.398438 C 630.761719 913.867188 617.160156 915.910156 563.484375 938.019531 C 536.738281 949.027344 503.292969 954.867188 469.292969 954.867188 Z M 469.289062 954.851562 " fill-opacity="1" fill-rule="nonzero"/></g><g clip-path="url(#6872b37942)"><path fill="#000000" d="M 476.398438 914.03125 C 464.113281 914.03125 450.082031 912.273438 432.996094 908.117188 C 416.449219 904.085938 406.808594 897.691406 403.527344 888.570312 C 397.328125 871.355469 415.28125 847.277344 434.292969 821.777344 C 441.179688 812.546875 448.300781 802.988281 454.460938 793.523438 C 471.234375 767.746094 490.476562 754.5 515.003906 751.828125 C 537.136719 749.414062 560.839844 755.59375 588.28125 762.753906 C 631.585938 774.046875 680.671875 786.851562 739.085938 769.035156 C 767.957031 760.222656 789.789062 753.699219 807.847656 750.015625 C 808.457031 749.886719 809.046875 750.285156 809.175781 750.890625 C 809.300781 751.496094 808.90625 752.089844 808.296875 752.214844 C 790.335938 755.878906 768.550781 762.386719 739.738281 771.183594 C 718.550781 777.648438 698.597656 780.125 679.714844 780.125 C 645.984375 780.125 615.660156 772.21875 587.710938 764.925781 C 534.238281 750.980469 492.003906 739.957031 456.34375 794.746094 C 450.140625 804.269531 443 813.847656 436.089844 823.117188 C 417.453125 848.117188 399.851562 871.71875 405.636719 887.804688 C 408.648438 896.164062 417.769531 902.09375 433.527344 905.9375 C 485.503906 918.601562 508.910156 908.667969 541.292969 894.929688 C 571.179688 882.242188 608.382812 866.457031 681.960938 861.753906 C 715.007812 859.640625 738.082031 846.550781 762.507812 832.695312 C 776.3125 824.863281 790.597656 816.769531 807.648438 809.929688 C 808.222656 809.699219 808.875 809.984375 809.105469 810.554688 C 809.339844 811.128906 809.0625 811.78125 808.484375 812.011719 C 791.570312 818.796875 777.363281 826.855469 763.613281 834.652344 C 738.953125 848.640625 715.667969 861.851562 682.101562 863.992188 C 608.90625 868.679688 571.90625 884.375 542.167969 896.996094 C 520.011719 906.394531 502.003906 914.03125 476.398438 914.03125 Z M 476.398438 914.03125 " fill-opacity="1" fill-rule="nonzero"/></g><g clip-path="url(#bb5e5abfcb)"><path fill="#000000" d="M 506.234375 865.21875 C 503.414062 865.21875 500.777344 865.019531 498.335938 864.613281 C 487.152344 862.773438 482.417969 857.058594 480.421875 852.585938 C 475.097656 840.703125 482.660156 822.578125 496.292969 814.566406 C 522.640625 799.066406 554.691406 801.085938 591.800781 803.421875 C 630.222656 805.851562 673.769531 808.589844 721.335938 792.355469 C 757.332031 780.066406 782.4375 774.308594 807.992188 772.488281 C 808.621094 772.441406 809.144531 772.90625 809.1875 773.527344 C 809.234375 774.152344 808.769531 774.683594 808.148438 774.726562 C 776.785156 776.964844 748.234375 785.539062 722.0625 794.480469 C 674.070312 810.859375 630.285156 808.097656 591.65625 805.664062 C 554.917969 803.347656 523.1875 801.34375 497.429688 816.5 C 484.710938 823.980469 477.574219 840.738281 482.472656 851.660156 C 488.246094 864.539062 508.488281 866.476562 538.019531 856.976562 C 606.472656 834.949219 613.929688 834.34375 671.964844 829.605469 C 678.6875 829.058594 686.09375 828.449219 694.351562 827.753906 C 732.4375 824.527344 750.574219 815.617188 769.769531 806.179688 C 780.714844 800.796875 792.042969 795.230469 807.730469 790.167969 C 808.320312 789.980469 808.949219 790.304688 809.144531 790.894531 C 809.332031 791.488281 809.007812 792.117188 808.417969 792.308594 C 792.882812 797.328125 781.636719 802.855469 770.757812 808.203125 C 751.367188 817.734375 733.042969 826.734375 694.539062 830 C 686.28125 830.699219 678.875 831.304688 672.144531 831.851562 C 614.335938 836.570312 606.910156 837.175781 538.699219 859.117188 C 526.09375 863.175781 515.21875 865.210938 506.234375 865.210938 Z M 506.234375 865.21875 " fill-opacity="1" fill-rule="nonzero"/></g><g clip-path="url(#e9f15ec7b9)"><path fill="#000000" d="M 595.769531 1439.78125 C 595.679688 1439.78125 595.589844 1439.773438 595.5 1439.753906 C 573.777344 1434.472656 554.859375 1433.808594 536.550781 1433.164062 C 518.492188 1432.527344 501.445312 1431.925781 483.886719 1426.828125 C 382.625 1397.441406 328.828125 1297.46875 302.976562 1249.425781 C 299.207031 1242.433594 295.960938 1236.398438 293.285156 1231.910156 C 264.011719 1182.914062 211.691406 1160.597656 161.101562 1139.007812 C 93.707031 1110.25 29.640625 1082.910156 29.609375 995.664062 C 29.609375 984.574219 30.636719 972.511719 32.832031 959.359375 C 42.855469 899.195312 49.332031 858.195312 49.332031 824.503906 C 49.332031 810.042969 48.140625 796.9375 45.527344 784.238281 C 36.933594 742.480469 13.332031 703.90625 -34.957031 627.507812 C -48.613281 605.910156 -55.105469 589.777344 -55.105469 576.949219 C -55.105469 573.355469 -54.597656 570.023438 -53.59375 566.910156 C -47.035156 546.488281 -19.429688 535.300781 22.347656 518.359375 C 24.632812 517.4375 26.953125 516.496094 29.320312 515.527344 C 72.78125 497.863281 97.355469 470.632812 104.453125 432.300781 C 105.988281 424.015625 106.625 415.59375 106.625 407.160156 C 106.625 382.273438 101.015625 357.414062 96.277344 336.382812 C 92.75 320.746094 89.664062 307.058594 89.65625 296.730469 C 89.65625 289.578125 91.132812 284.046875 94.957031 280.609375 C 101.164062 275.03125 112.839844 275.433594 131.675781 281.867188 C 222.742188 312.96875 274.320312 355.414062 289.347656 411.625 C 292.703125 424.175781 294.117188 436.882812 294.117188 449.621094 C 294.117188 486.285156 282.4375 523.113281 271.804688 556.625 C 263.121094 584.011719 254.914062 609.878906 254.75 631.132812 C 254.34375 683.066406 241.84375 735.761719 229.742188 786.730469 C 220.894531 824.023438 212.53125 859.257812 210.125 890.210938 C 209.664062 896.132812 209.4375 901.765625 209.4375 907.128906 C 209.4375 932.949219 214.835938 952.410156 226.042969 967.582031 C 243.625 991.367188 276.125 1004.472656 325.40625 1007.664062 C 415.019531 1013.460938 442.601562 1023.308594 488.296875 1039.609375 C 510.191406 1047.421875 537.433594 1057.140625 578.015625 1068.546875 C 618.289062 1079.867188 650.777344 1082.863281 680.246094 1077.988281 C 706.503906 1073.644531 727.136719 1063.582031 748.992188 1052.925781 C 766.746094 1044.265625 785.109375 1035.3125 807.746094 1028.8125 C 808.335938 1028.640625 808.964844 1028.984375 809.136719 1029.582031 C 809.167969 1029.6875 809.183594 1029.785156 809.183594 1029.890625 C 809.183594 1030.375 808.859375 1030.832031 808.367188 1030.976562 C 785.910156 1037.421875 767.644531 1046.335938 749.972656 1054.953125 C 727.96875 1065.683594 707.183594 1075.816406 680.613281 1080.222656 C 650.804688 1085.15625 618.011719 1082.136719 577.410156 1070.726562 C 536.753906 1059.296875 509.472656 1049.5625 487.539062 1041.738281 C 442.027344 1025.492188 414.554688 1015.691406 325.257812 1009.917969 C 275.273438 1006.683594 242.222656 993.277344 224.230469 968.929688 C 212.722656 953.363281 207.183594 933.472656 207.183594 907.15625 C 207.183594 901.734375 207.417969 896.035156 207.878906 890.054688 C 210.296875 858.921875 218.683594 823.613281 227.550781 786.230469 C 239.617188 735.390625 252.09375 682.8125 252.488281 631.132812 C 252.660156 609.542969 260.910156 583.519531 269.648438 555.96875 C 280.273438 522.472656 291.863281 485.925781 291.871094 449.671875 C 291.871094 388.234375 258.597656 327.617188 130.933594 284.015625 C 113.191406 277.957031 101.90625 277.394531 96.441406 282.300781 C 93.140625 285.265625 91.851562 290.210938 91.851562 296.695312 C 91.851562 306.675781 94.921875 320.296875 98.449219 335.914062 C 103.21875 357.0625 108.847656 382.058594 108.855469 407.183594 C 108.855469 415.734375 108.203125 424.292969 106.644531 432.726562 C 99.398438 471.878906 74.375 499.644531 30.148438 517.625 C 27.785156 518.589844 25.457031 519.535156 23.171875 520.457031 C -18.023438 537.15625 -45.238281 548.195312 -51.476562 567.613281 C -52.410156 570.519531 -52.882812 573.625 -52.882812 576.988281 C -52.882812 589.34375 -46.503906 605.078125 -33.070312 626.324219 C 15.371094 702.957031 39.042969 741.664062 47.714844 783.804688 C 50.367188 796.660156 51.570312 809.917969 51.570312 824.511719 C 51.570312 858.367188 45.078125 899.472656 35.039062 959.75 C 32.898438 972.578125 31.835938 984.5 31.828125 995.628906 C 31.828125 1008.546875 33.265625 1020.417969 36.148438 1031.441406 C 40.945312 1049.773438 49.683594 1065.421875 62.867188 1079.277344 C 87.539062 1105.203125 123.695312 1120.628906 161.96875 1136.960938 C 212.890625 1158.695312 265.546875 1181.160156 295.203125 1230.78125 C 297.90625 1235.3125 301.171875 1241.371094 304.945312 1248.386719 C 330.65625 1296.15625 384.152344 1395.570312 484.507812 1424.691406 C 501.796875 1429.710938 518.71875 1430.308594 536.628906 1430.9375 C 555.046875 1431.589844 574.085938 1432.257812 596.023438 1437.589844 C 596.539062 1437.714844 596.882812 1438.171875 596.882812 1438.675781 C 596.882812 1438.765625 596.875 1438.855469 596.855469 1438.945312 C 596.726562 1439.460938 596.269531 1439.804688 595.761719 1439.804688 Z M 635.980469 1400.96875 C 578.074219 1400.96875 511.089844 1392.730469 448.519531 1363.609375 C 407.332031 1344.4375 371.699219 1315.726562 348.183594 1282.765625 C 331.941406 1260 323.25 1237.304688 323.25 1218.851562 C 323.25 1212.832031 324.179688 1207.257812 326.074219 1202.292969 C 330.683594 1190.199219 340.875 1182.089844 355.542969 1178.824219 C 371.648438 1175.246094 392.796875 1177.347656 418.425781 1185.078125 C 471.546875 1201.101562 500.179688 1197.246094 527.867188 1193.523438 C 543.761719 1191.382812 560.1875 1189.171875 581.070312 1190.664062 C 619.710938 1193.40625 654.324219 1204.921875 687.808594 1216.066406 C 728.589844 1229.636719 767.105469 1242.449219 807.929688 1237.550781 C 808.546875 1237.476562 809.105469 1237.917969 809.183594 1238.53125 C 809.183594 1238.578125 809.191406 1238.621094 809.191406 1238.667969 C 809.191406 1239.226562 808.769531 1239.714844 808.203125 1239.78125 C 766.871094 1244.746094 728.125 1231.851562 687.097656 1218.199219 C 653.75 1207.101562 619.269531 1195.628906 580.914062 1192.910156 C 560.265625 1191.441406 543.941406 1193.636719 528.167969 1195.765625 C 500.246094 1199.523438 471.367188 1203.410156 417.78125 1187.242188 C 392.527344 1179.625 371.75 1177.535156 356.027344 1181.035156 C 341.929688 1184.171875 332.554688 1191.59375 328.167969 1203.109375 C 326.363281 1207.851562 325.480469 1213.167969 325.480469 1218.925781 C 325.480469 1236.863281 334.039062 1259.089844 350.007812 1281.472656 C 373.300781 1314.121094 408.617188 1342.570312 449.460938 1361.585938 C 568.058594 1416.792969 702.917969 1396.535156 760.507812 1387.878906 C 772.652344 1386.050781 781.425781 1384.734375 785.996094 1384.734375 C 793.632812 1384.734375 801.089844 1384.972656 808.140625 1385.445312 C 808.734375 1385.480469 809.191406 1385.976562 809.191406 1386.5625 C 809.191406 1386.589844 809.191406 1386.613281 809.191406 1386.644531 C 809.144531 1387.265625 808.613281 1387.738281 807.992188 1387.691406 C 800.984375 1387.21875 793.585938 1386.980469 785.996094 1386.980469 C 781.597656 1386.980469 772.890625 1388.289062 760.835938 1390.09375 C 733.375 1394.222656 688.390625 1400.976562 635.964844 1400.976562 Z M 738.382812 1190.238281 C 719.410156 1190.238281 701.675781 1188.003906 684.925781 1183.558594 C 644.539062 1172.8125 614.351562 1162.265625 590.09375 1153.796875 C 556.746094 1142.152344 532.652344 1133.742188 502.964844 1131.332031 C 471.96875 1128.816406 436.304688 1133.046875 383.722656 1145.492188 C 373.847656 1147.828125 361.589844 1148.96875 347.566406 1148.96875 C 313.171875 1148.96875 268.085938 1142.113281 221.019531 1129.277344 C 152.40625 1110.574219 99.996094 1084.660156 80.816406 1059.980469 C 75.238281 1052.804688 72.445312 1045.78125 72.445312 1038.980469 C 72.445312 1034.855469 73.46875 1030.804688 75.535156 1026.855469 C 93.796875 991.921875 144.425781 1013.660156 203.035156 1038.839844 C 249.839844 1058.9375 302.878906 1081.726562 347.921875 1078.859375 C 463.191406 1071.542969 525.042969 1091.835938 574.738281 1108.144531 C 603 1117.425781 627.417969 1125.4375 656.234375 1127.128906 C 687.785156 1128.980469 721.648438 1122.800781 762.820312 1107.6875 C 780.933594 1101.039062 795.195312 1095.960938 807.699219 1091.707031 C 808.292969 1091.507812 808.925781 1091.820312 809.121094 1092.414062 C 809.160156 1092.53125 809.183594 1092.652344 809.183594 1092.773438 C 809.183594 1093.242188 808.890625 1093.679688 808.417969 1093.835938 C 795.929688 1098.082031 781.6875 1103.152344 763.59375 1109.800781 C 724.300781 1124.222656 693.796875 1129.632812 667.300781 1129.632812 C 632.980469 1129.632812 605.367188 1120.570312 574.03125 1110.289062 C 524.519531 1094.039062 462.902344 1073.808594 348.054688 1081.105469 C 345.410156 1081.269531 342.746094 1081.351562 340.058594 1081.351562 C 296.324219 1081.351562 246.453125 1059.933594 202.144531 1040.90625 C 144.554688 1016.167969 94.816406 994.8125 77.519531 1027.898438 C 75.640625 1031.484375 74.707031 1035.175781 74.714844 1038.957031 C 74.714844 1045.285156 77.339844 1051.851562 82.582031 1058.601562 C 101.472656 1082.917969 153.441406 1108.527344 221.605469 1127.113281 C 286.519531 1144.816406 349.949219 1151.167969 383.199219 1143.304688 C 436.023438 1130.808594 471.894531 1126.554688 503.144531 1129.09375 C 533.113281 1131.527344 557.320312 1139.980469 590.828125 1151.679688 C 615.046875 1160.132812 645.191406 1170.660156 685.492188 1181.386719 C 720.945312 1190.8125 760.957031 1190.15625 807.8125 1179.371094 C 808.417969 1179.234375 809.015625 1179.609375 809.160156 1180.21875 C 809.183594 1180.300781 809.191406 1180.390625 809.191406 1180.472656 C 809.191406 1180.980469 808.835938 1181.445312 808.320312 1181.566406 C 783.179688 1187.355469 759.976562 1190.246094 738.375 1190.246094 Z M 738.382812 1190.238281 " fill-opacity="1" fill-rule="nonzero"/></g><path fill="#000000" d="M -329.105469 1439.78125 C -329.183594 1439.78125 -329.265625 1439.773438 -329.347656 1439.761719 C -329.953125 1439.632812 -330.335938 1439.035156 -330.207031 1438.425781 C -320.203125 1392.035156 -300.625 1339.6875 -272.007812 1282.851562 C -248.71875 1236.585938 -225.574219 1199.417969 -213.136719 1179.453125 C -208.4375 1171.898438 -205.328125 1166.910156 -204.765625 1165.496094 C -173.195312 1085.824219 -192.617188 1010.03125 -209.753906 943.164062 C -218.46875 909.148438 -226.703125 877.015625 -226.269531 849.496094 C -225.785156 818.796875 -214.652344 796.714844 -191.238281 780 C -170.429688 765.140625 -151.878906 761.660156 -136.085938 769.648438 C -120.777344 777.394531 -107.832031 796.128906 -97.605469 825.34375 C -88.992188 849.9375 -82.089844 882.609375 -77.074219 922.449219 C -67.984375 994.617188 -66.832031 1073.894531 -66.066406 1126.351562 C -65.691406 1152.261719 -65.417969 1170.976562 -64.253906 1175.890625 C -51.835938 1228.429688 -30.757812 1263.410156 2.082031 1285.972656 C 31.429688 1306.148438 66.726562 1314.039062 104.09375 1322.40625 C 136.902344 1329.742188 170.820312 1337.335938 203.816406 1353.78125 C 241.28125 1372.453125 271.6875 1400.019531 296.761719 1438.054688 C 297.105469 1438.570312 296.960938 1439.265625 296.4375 1439.609375 C 295.921875 1439.953125 295.226562 1439.8125 294.882812 1439.289062 C 270.03125 1401.597656 239.910156 1374.285156 202.804688 1355.789062 C 170.054688 1339.472656 136.265625 1331.90625 103.589844 1324.589844 C 66.007812 1316.183594 30.507812 1308.238281 0.800781 1287.816406 C -32.519531 1264.914062 -53.886719 1229.507812 -66.449219 1176.398438 C -67.667969 1171.253906 -67.925781 1153.398438 -68.320312 1126.382812 C -69.085938 1073.976562 -70.238281 994.773438 -79.3125 922.726562 C -90.183594 836.382812 -109.628906 785.554688 -137.105469 771.65625 C -152.09375 764.078125 -169.871094 767.5 -189.941406 781.832031 C -212.726562 798.097656 -223.558594 819.613281 -224.03125 849.53125 C -224.464844 876.753906 -216.269531 908.746094 -207.589844 942.609375 C -199.316406 974.886719 -189.941406 1011.46875 -186.851562 1049.058594 C -183.308594 1092.136719 -188.492188 1130.492188 -202.695312 1166.324219 C -203.328125 1167.929688 -206.308594 1172.714844 -211.25 1180.644531 C -223.664062 1200.578125 -246.777344 1237.683594 -270.019531 1283.859375 C -298.542969 1340.527344 -318.0625 1392.695312 -328.027344 1438.898438 C -328.140625 1439.421875 -328.605469 1439.78125 -329.121094 1439.78125 Z M -329.105469 1439.78125 " fill-opacity="1" fill-rule="nonzero"/><path fill="#000000" d="M -255.476562 1439.78125 C -255.917969 1439.78125 -256.347656 1439.511719 -256.519531 1439.078125 C -256.984375 1437.917969 -257.441406 1436.75 -257.890625 1435.574219 C -266.050781 1414.367188 -245.574219 1384.890625 -221.867188 1350.765625 C -215.59375 1341.734375 -209.101562 1332.386719 -202.875 1322.800781 C -193.140625 1307.839844 -184.101562 1292.652344 -175.359375 1277.960938 C -156.257812 1245.871094 -141.179688 1220.527344 -129.753906 1215.757812 C -110.105469 1207.558594 -100.785156 1229.515625 -86.664062 1262.742188 C -78.398438 1282.207031 -68.105469 1306.425781 -53.019531 1330.746094 C -34.277344 1360.972656 8.871094 1377.476562 58.824219 1396.582031 C 88.207031 1407.820312 121.515625 1420.558594 153.546875 1437.664062 C 154.09375 1437.957031 154.300781 1438.636719 154.011719 1439.183594 C 153.71875 1439.730469 153.035156 1439.941406 152.488281 1439.648438 C 120.585938 1422.605469 87.351562 1409.894531 58.03125 1398.675781 C 7.695312 1379.425781 -35.78125 1362.792969 -54.917969 1331.921875 C -70.097656 1307.449219 -80.429688 1283.140625 -88.722656 1263.613281 C -102.800781 1230.480469 -111.296875 1210.488281 -128.878906 1217.824219 C -139.613281 1222.3125 -155.285156 1248.625 -173.417969 1279.105469 C -182.171875 1293.8125 -191.222656 1309.023438 -200.980469 1324.023438 C -207.230469 1333.636719 -213.730469 1342.992188 -220.011719 1352.046875 C -243.347656 1385.65625 -263.511719 1414.671875 -255.777344 1434.773438 C -255.335938 1435.933594 -254.878906 1437.09375 -254.421875 1438.238281 C -254.191406 1438.816406 -254.46875 1439.46875 -255.042969 1439.699219 C -255.179688 1439.753906 -255.320312 1439.78125 -255.464844 1439.78125 Z M -255.476562 1439.78125 " fill-opacity="1" fill-rule="nonzero"/><path fill="#000000" d="M 24.0625 1439.78125 C 23.988281 1439.78125 23.90625 1439.773438 23.824219 1439.761719 C -7.789062 1432.984375 -29.746094 1423.226562 -45.304688 1409.042969 C -59.734375 1395.882812 -68.582031 1379.363281 -78.1875 1356.964844 C -80.195312 1352.285156 -82.226562 1347.386719 -84.195312 1342.65625 C -96.953125 1311.898438 -110.152344 1280.09375 -127.101562 1279.300781 C -134.828125 1278.933594 -147.761719 1283.375 -165.488281 1306.574219 C -177.320312 1322.058594 -188.761719 1343.015625 -196.074219 1362.632812 C -196.6875 1364.273438 -197.542969 1366.355469 -198.539062 1368.765625 C -204.40625 1383.011719 -215.339844 1409.527344 -214.574219 1438.636719 C -214.5625 1439.257812 -215.046875 1439.773438 -215.667969 1439.789062 C -216.289062 1439.8125 -216.808594 1439.316406 -216.820312 1438.695312 C -217.59375 1409.117188 -206.550781 1382.3125 -200.613281 1367.914062 C -199.625 1365.523438 -198.777344 1363.457031 -198.179688 1361.855469 C -190.78125 1342.046875 -179.230469 1320.871094 -167.273438 1305.21875 C -157.15625 1291.984375 -141.957031 1276.371094 -126.992188 1277.0625 C -108.617188 1277.921875 -95.140625 1310.394531 -82.113281 1341.800781 C -80.152344 1346.535156 -78.121094 1351.421875 -76.121094 1356.089844 C -66.636719 1378.203125 -57.921875 1394.507812 -43.792969 1407.386719 C -28.542969 1421.292969 -6.910156 1430.886719 24.296875 1437.574219 C 24.902344 1437.699219 25.289062 1438.300781 25.15625 1438.90625 C 25.042969 1439.429688 24.578125 1439.796875 24.054688 1439.796875 Z M 24.0625 1439.78125 " fill-opacity="1" fill-rule="nonzero"/><path fill="#000000" d="M -293.511719 1439.78125 C -294.113281 1439.78125 -294.613281 1439.3125 -294.636719 1438.703125 C -296.820312 1381.296875 -263.191406 1338.050781 -227.582031 1292.261719 C -206.109375 1264.652344 -183.910156 1236.105469 -167.8125 1202.578125 C -149.59375 1164.640625 -142.152344 1125.757812 -145.074219 1083.710938 C -147.035156 1055.464844 -150.816406 1026.4375 -154.460938 998.371094 C -162.105469 939.597656 -168.710938 888.839844 -153.253906 876.789062 C -148.839844 873.347656 -142.773438 873.105469 -135.242188 876.078125 C -95.320312 891.835938 -97.3125 955.113281 -99.625 1028.390625 C -100.890625 1068.652344 -102.328125 1114.285156 -96.609375 1156 C -90.078125 1203.597656 -75.15625 1239.46875 -50.996094 1265.65625 C 1.789062 1322.871094 68.566406 1341.269531 133.160156 1359.0625 C 193.933594 1375.808594 251.335938 1391.621094 293.960938 1437.894531 C 294.378906 1438.351562 294.347656 1439.0625 293.894531 1439.484375 C 293.4375 1439.902344 292.726562 1439.871094 292.304688 1439.414062 C 250.117188 1393.609375 193.019531 1377.882812 132.558594 1361.21875 C 67.667969 1343.34375 0.566406 1324.855469 -52.644531 1267.167969 C -77.125 1240.628906 -92.234375 1204.359375 -98.832031 1156.296875 C -104.582031 1114.398438 -103.136719 1068.664062 -101.871094 1028.316406 C -99.585938 955.886719 -97.617188 893.332031 -136.074219 878.160156 C -142.910156 875.457031 -148.082031 875.59375 -151.878906 878.550781 C -166.320312 889.8125 -159.800781 939.980469 -152.238281 998.070312 C -148.582031 1026.167969 -144.800781 1055.222656 -142.832031 1083.539062 C -139.882812 1125.984375 -147.394531 1165.230469 -165.78125 1203.53125 C -181.984375 1237.265625 -204.257812 1265.917969 -225.804688 1293.617188 C -261.152344 1339.074219 -294.546875 1382.007812 -292.390625 1438.597656 C -292.367188 1439.222656 -292.847656 1439.738281 -293.46875 1439.769531 C -293.484375 1439.769531 -293.496094 1439.769531 -293.511719 1439.769531 Z M -293.511719 1439.78125 " fill-opacity="1" fill-rule="nonzero"/></svg>